<svg xmlns="http://www.w3.org/2000/svg" width="1200" height="750" viewBox="0 0 1200 750" role="img" aria-label="Bild folgt">
  <defs>
    <linearGradient id="bg" x1="0" y1="0" x2="1" y2="1">
      <stop offset="0%" stop-color="#f4f7fb"/>
      <stop offset="55%" stop-color="#dfe7f0"/>
      <stop offset="100%" stop-color="#c8d3df"/>
    </linearGradient>
    <linearGradient id="shine" x1="0" y1="0" x2="0" y2="1">
      <stop offset="0%" stop-color="rgba(255,255,255,0.65)"/>
      <stop offset="100%" stop-color="rgba(255,255,255,0)"/>
    </linearGradient>
  </defs>
  <rect width="1200" height="750" fill="url(#bg)"/>
  <rect x="0" y="0" width="1200" height="170" fill="url(#shine)" opacity="0.75"/>
  <g opacity="0.18" stroke="#7f95ab" stroke-width="2">
    <path d="M0 130H1200"/>
    <path d="M0 300H1200"/>
    <path d="M0 470H1200"/>
    <path d="M0 640H1200"/>
    <path d="M120 0V750"/>
    <path d="M360 0V750"/>
    <path d="M600 0V750"/>
    <path d="M840 0V750"/>
    <path d="M1080 0V750"/>
  </g>
  <g opacity="0.28" fill="#93a6b8">
    <circle cx="178" cy="130" r="44"/>
    <circle cx="1010" cy="616" r="52"/>
    <circle cx="900" cy="190" r="28"/>
  </g>
  <g fill="#ffffff" opacity="0.7">
    <rect x="130" y="112" width="80" height="10" rx="5"/>
    <rect x="980" y="602" width="92" height="10" rx="5"/>
  </g>
  <text x="600" y="388" text-anchor="middle" font-family="Arial, Helvetica, sans-serif" font-size="54" font-weight="700" fill="#ffffff" opacity="0.92" letter-spacing="2">
    BILD FOLGT
  </text>
  <text x="600" y="440" text-anchor="middle" font-family="Arial, Helvetica, sans-serif" font-size="22" fill="#ffffff" opacity="0.82" letter-spacing="1.5">
    TEMPORARY PLACEHOLDER
  </text>
</svg>
